<?xml version="1.0" encoding="UTF-8" standalone="no"?>
<!-- Generator: Adobe Illustrator 16.0.0, SVG Export Plug-In . SVG Version: 6.00 Build 0)  -->

<svg
   xmlns:dc="http://purl.org/dc/elements/1.1/"
   xmlns:cc="http://creativecommons.org/ns#"
   xmlns:rdf="http://www.w3.org/1999/02/22-rdf-syntax-ns#"
   xmlns:svg="http://www.w3.org/2000/svg"
   xmlns="http://www.w3.org/2000/svg"
   xmlns:xlink="http://www.w3.org/1999/xlink"
   xmlns:sodipodi="http://sodipodi.sourceforge.net/DTD/sodipodi-0.dtd"
   xmlns:inkscape="http://www.inkscape.org/namespaces/inkscape"
   version="1.1"
   id="Layer_2"
   x="0px"
   y="0px"
   width="240.924"
   height="258.16"
   viewBox="0 0 240.924 258.15999"
   enable-background="new 0 0 841.89 595.28"
   xml:space="preserve"
   inkscape:version="0.92.3 (2405546, 2018-03-11)"
   sodipodi:docname="Google_Play_symbol.svg"><metadata
   id="metadata55"><rdf:RDF><cc:Work
       rdf:about=""><dc:format>image/svg+xml</dc:format><dc:type
         rdf:resource="http://purl.org/dc/dcmitype/StillImage" /><dc:title></dc:title></cc:Work></rdf:RDF></metadata><defs
   id="defs53"><linearGradient
     inkscape:collect="always"
     xlink:href="#SVGID_1_"
     id="linearGradient3775"
     gradientUnits="userSpaceOnUse"
     gradientTransform="matrix(1.9923591,0,0,1.9987539,-248.43722,-412.9438)"
     x1="226.8584"
     y1="284.50681"
     x2="210.5396"
     y2="252.47929" /><linearGradient
     inkscape:collect="always"
     xlink:href="#SVGID_2_"
     id="linearGradient3777"
     gradientUnits="userSpaceOnUse"
     gradientTransform="matrix(1.9923591,0,0,1.9987539,-248.43722,-412.9438)"
     x1="203.1299"
     y1="279.73831"
     x2="140.9948"
     y2="346.37" /><linearGradient
     inkscape:collect="always"
     xlink:href="#SVGID_3_"
     id="linearGradient3779"
     gradientUnits="userSpaceOnUse"
     gradientTransform="matrix(1.9923591,0,0,1.9987539,-248.43722,-412.9438)"
     x1="203.4604"
     y1="261.66989"
     x2="140.33949"
     y2="196.3062" /><linearGradient
     inkscape:collect="always"
     xlink:href="#SVGID_4_"
     id="linearGradient3781"
     gradientUnits="userSpaceOnUse"
     gradientTransform="matrix(1.9923591,0,0,1.9987539,-248.43722,-412.9438)"
     x1="159.23779"
     y1="335.7168"
     x2="159.23779"
     y2="206.7505" /><linearGradient
     inkscape:collect="always"
     xlink:href="#SVGID_1_"
     id="linearGradient3783"
     gradientUnits="userSpaceOnUse"
     gradientTransform="matrix(1.9923591,0,0,1.9987539,-248.43722,-412.9438)"
     x1="226.8584"
     y1="284.50681"
     x2="210.5396"
     y2="252.47929" /><linearGradient
     inkscape:collect="always"
     xlink:href="#SVGID_2_"
     id="linearGradient3785"
     gradientUnits="userSpaceOnUse"
     gradientTransform="matrix(1.9923591,0,0,1.9987539,-248.43722,-412.9438)"
     x1="203.1299"
     y1="279.73831"
     x2="140.9948"
     y2="346.37" /><linearGradient
     inkscape:collect="always"
     xlink:href="#SVGID_3_"
     id="linearGradient3787"
     gradientUnits="userSpaceOnUse"
     gradientTransform="matrix(1.9923591,0,0,1.9987539,-248.43722,-412.9438)"
     x1="203.4604"
     y1="261.66989"
     x2="140.33949"
     y2="196.3062" /><linearGradient
     inkscape:collect="always"
     xlink:href="#SVGID_4_"
     id="linearGradient3789"
     gradientUnits="userSpaceOnUse"
     gradientTransform="matrix(1.9923591,0,0,1.9987539,-248.43722,-412.9438)"
     x1="159.23779"
     y1="335.7168"
     x2="159.23779"
     y2="206.7505" /><linearGradient
     inkscape:collect="always"
     xlink:href="#SVGID_1_"
     id="linearGradient3791"
     gradientUnits="userSpaceOnUse"
     gradientTransform="matrix(1.9923591,0,0,1.9987539,-248.43722,-412.9438)"
     x1="226.8584"
     y1="284.50681"
     x2="210.5396"
     y2="252.47929" /><linearGradient
     inkscape:collect="always"
     xlink:href="#SVGID_2_"
     id="linearGradient3793"
     gradientUnits="userSpaceOnUse"
     gradientTransform="matrix(1.9923591,0,0,1.9987539,-248.43722,-412.9438)"
     x1="203.1299"
     y1="279.73831"
     x2="140.9948"
     y2="346.37" /><linearGradient
     inkscape:collect="always"
     xlink:href="#SVGID_3_"
     id="linearGradient3795"
     gradientUnits="userSpaceOnUse"
     gradientTransform="matrix(1.9923591,0,0,1.9987539,-248.43722,-412.9438)"
     x1="203.4604"
     y1="261.66989"
     x2="140.33949"
     y2="196.3062" /><linearGradient
     inkscape:collect="always"
     xlink:href="#SVGID_4_"
     id="linearGradient3797"
     gradientUnits="userSpaceOnUse"
     gradientTransform="matrix(1.9923591,0,0,1.9987539,-248.43722,-412.9438)"
     x1="159.23779"
     y1="335.7168"
     x2="159.23779"
     y2="206.7505" /></defs><sodipodi:namedview
   pagecolor="#ffffff"
   bordercolor="#666666"
   borderopacity="1"
   objecttolerance="10"
   gridtolerance="10"
   guidetolerance="10"
   inkscape:pageopacity="0"
   inkscape:pageshadow="2"
   inkscape:window-width="1510"
   inkscape:window-height="1253"
   id="namedview51"
   showgrid="false"
   fit-margin-top="0"
   fit-margin-left="0"
   fit-margin-right="0"
   fit-margin-bottom="0"
   inkscape:zoom="1.1213358"
   inkscape:cx="428.86672"
   inkscape:cy="58.833096"
   inkscape:window-x="1297"
   inkscape:window-y="1667"
   inkscape:window-maximized="0"
   inkscape:current-layer="Layer_2" />




<linearGradient
   id="SVGID_1_"
   gradientUnits="userSpaceOnUse"
   x1="226.8584"
   y1="284.50681"
   x2="210.5396"
   y2="252.47929"
   gradientTransform="translate(-124.695,-206.60063)">
	<stop
   offset="0"
   style="stop-color:#FCD08F"
   id="stop12" />
	<stop
   offset="1"
   style="stop-color:#F79673"
   id="stop14" />
</linearGradient>
<path
   d="m 177.6746,168.93941 c 30.45719,-16.72357 53.71799,-29.49761 55.83387,-30.66088 6.31179,-3.46584 12.92443,-12.31033 0,-19.37992 -4.15407,-2.27658 -26.78926,-14.65886 -55.86973,-30.574944 l -39.99661,40.432794 z"
   id="path16"
   inkscape:connector-curvature="0"
   style="fill:url(#linearGradient3775);stroke-width:1.99555397" />
<linearGradient
   id="SVGID_2_"
   gradientUnits="userSpaceOnUse"
   x1="203.1299"
   y1="279.73831"
   x2="140.9948"
   y2="346.37"
   gradientTransform="translate(-124.695,-206.60063)">
	<stop
   offset="0"
   style="stop-color:#E74047"
   id="stop19" />
	<stop
   offset="1"
   style="stop-color:#7F50A0"
   id="stop21" />
</linearGradient>
<path
   d="M 137.64014,128.75646 9.7147429,258.07184 c 2.8889211,0.36777 6.3635951,-0.39975 10.3602671,-2.59438 8.274268,-4.54317 97.13348,-53.33874 157.59959,-86.54205 z"
   id="path23"
   inkscape:connector-curvature="0"
   style="fill:url(#linearGradient3777);stroke-width:1.99555397" />
<linearGradient
   id="SVGID_3_"
   gradientUnits="userSpaceOnUse"
   x1="203.4604"
   y1="261.66989"
   x2="140.33949"
   y2="196.3062"
   gradientTransform="translate(-124.695,-206.60063)">
	<stop
   offset="0"
   style="stop-color:#E6FFAB"
   id="stop26" />
	<stop
   offset="1"
   style="stop-color:#47BEBC"
   id="stop28" />
</linearGradient>
<path
   d="m 137.64014,128.75646 39.9966,-40.432794 c 0,0 -148.661862,-81.3672649 -157.56173,-86.2382249 C 16.65413,0.21260111 12.924433,-0.44098889 9.6230944,0.29655111 Z"
   id="path30"
   inkscape:connector-curvature="0"
   style="fill:url(#linearGradient3779);stroke-width:1.99555397" />
<linearGradient
   id="SVGID_4_"
   gradientUnits="userSpaceOnUse"
   x1="159.23779"
   y1="335.7168"
   x2="159.23779"
   y2="206.7505"
   gradientTransform="translate(-124.695,-206.60063)">
	<stop
   offset="0"
   style="stop-color:#84E9DB"
   id="stop33" />
	<stop
   offset="1"
   style="stop-color:#197491"
   id="stop35" />
</linearGradient>
<path
   d="M 137.64014,128.75646 9.6211021,0.29855111 C 4.333381,1.4818111 0,6.0729511 0,15.301201 0,30.291846 0,230.0733 0,242.65945 c 0,8.69058 3.4089264,14.80277 9.7127506,15.41239 z"
   id="path37"
   inkscape:connector-curvature="0"
   style="fill:url(#linearGradient3781);stroke-width:1.99555397" />






<path
   style="fill:url(#linearGradient3783);stroke-width:1.99555397"
   inkscape:connector-curvature="0"
   id="path31"
   d="m 177.6746,168.93941 c 30.45719,-16.72357 53.71799,-29.49761 55.83387,-30.66088 6.31179,-3.46584 12.92443,-12.31033 0,-19.37992 -4.15407,-2.27658 -26.78926,-14.65886 -55.86973,-30.574944 l -39.99661,40.432794 z" /><path
   style="fill:url(#linearGradient3785);stroke-width:1.99555397"
   inkscape:connector-curvature="0"
   id="path33"
   d="M 137.64014,128.75646 9.7147429,258.07184 c 2.8889211,0.36777 6.3635951,-0.39975 10.3602671,-2.59438 8.274268,-4.54317 97.13348,-53.33874 157.59959,-86.54205 z" /><path
   style="fill:url(#linearGradient3787);stroke-width:1.99555397"
   inkscape:connector-curvature="0"
   id="path35"
   d="m 137.64014,128.75646 39.9966,-40.432794 c 0,0 -148.661862,-81.3672649 -157.56173,-86.2382249 C 16.65413,0.21260111 12.924433,-0.44098889 9.6230944,0.29655111 Z" /><path
   style="fill:url(#linearGradient3789);stroke-width:1.99555397"
   inkscape:connector-curvature="0"
   id="path38"
   d="M 137.64014,128.75646 9.6211021,0.29855111 C 4.333381,1.4818111 0,6.0729511 0,15.301201 0,30.291846 0,230.0733 0,242.65945 c 0,8.69058 3.4089264,14.80277 9.7127506,15.41239 z" /><path
   d="m 177.6746,168.93941 c 30.45719,-16.72357 53.71799,-29.49761 55.83387,-30.66088 6.31179,-3.46584 12.92443,-12.31033 0,-19.37992 -4.15407,-2.27658 -26.78926,-14.65886 -55.86973,-30.574944 l -39.99661,40.432794 z"
   id="path40"
   inkscape:connector-curvature="0"
   style="fill:url(#linearGradient3791);stroke-width:1.99555397" /><path
   d="M 137.64014,128.75646 9.7147429,258.07184 c 2.8889211,0.36777 6.3635951,-0.39975 10.3602671,-2.59438 8.274268,-4.54317 97.13348,-53.33874 157.59959,-86.54205 z"
   id="path42"
   inkscape:connector-curvature="0"
   style="fill:url(#linearGradient3793);stroke-width:1.99555397" /><path
   d="m 137.64014,128.75646 39.9966,-40.432794 c 0,0 -148.661862,-81.3672649 -157.56173,-86.2382249 C 16.65413,0.21260111 12.924433,-0.44098889 9.6230944,0.29655111 Z"
   id="path44"
   inkscape:connector-curvature="0"
   style="fill:url(#linearGradient3795);stroke-width:1.99555397" /><path
   d="M 137.64014,128.75646 9.6211021,0.29855111 C 4.333381,1.4818111 0,6.0729511 0,15.301201 0,30.291846 0,230.0733 0,242.65945 c 0,8.69058 3.4089264,14.80277 9.7127506,15.41239 z"
   id="path46"
   inkscape:connector-curvature="0"
   style="fill:url(#linearGradient3797);stroke-width:1.99555397" /></svg>